# xmcd
#
# Track frame offsets: 
#        150
#        17165
#        34871
#        52463
#        68165
#        83395
#        100200
#        117370
#        135979
#        152964
#        172472
#        193014
#
# Disc length: 2802 seconds
#
# Revision: 0
# Processed by: cddbd v1.5.2PL0 Copyright (c) Steve Scherf et al.
# Submitted via: ExactAudioCopy v0.95a5
#
DISCID=a80af00c
DTITLE=Mica Paris - Born Again
DYEAR=2009
DGENRE=Soul
TTITLE0=Baby Come Back Now
TTITLE1=You're The Only One
TTITLE2=Born Again
TTITLE3=Breathless
TTITLE4=Hold On
TTITLE5=I Remember
TTITLE6=The Hardest Thing
TTITLE7=Nothing But The Truth
TTITLE8=Tonight
TTITLE9=Stay
TTITLE10=My One Temptation
TTITLE11=Summertime (Live)
EXTD=
EXTT0=
EXTT1=
EXTT2=
EXTT3=
EXTT4=
EXTT5=
EXTT6=
EXTT7=
EXTT8=
EXTT9=
EXTT10=
EXTT11=
PLAYORDER=
